# xmcd
#
# Track frame offsets:
#	150
#	13747
#	32710
#	47228
#	60695
#	73885
#	86929
#	103377
#	122995
#	138425
#	153868
#	166495
#	179380
#	194082
#
# Disc length: 2771 seconds
#
# Revision: 0
# Processed by: cddbd v1.5.2PL0 Copyright (c) Steve Scherf et al.
# Submitted via: dBpowerAMP V4.0
#
DISCID=d60ad10e
DTITLE=Mike Denver - Got A Funny Feelin'
DYEAR=1900
DGENRE=Country
TTITLE0=Got A Funny Feelin'
TTITLE1=Honey
TTITLE2=Julieanne
TTITLE3=Why?
TTITLE4=Feelin' Kindda Lonely Tonight
TTITLE5=The Real Deal (with George Jones)
TTITLE6=Remember Me
TTITLE7=Happy Birthday Baby
TTITLE8=You Can't Divide A Heart
TTITLE9=Every Day Is A Beautiful Day
TTITLE10=Old Time Fiddle
TTITLE11=The Dance
TTITLE12=As Happy As We Are
TTITLE13=The Real Deal
EXTD=
EXTT0=
EXTT1=
EXTT2=
EXTT3=
EXTT4=
EXTT5=
EXTT6=
EXTT7=
EXTT8=
EXTT9=
EXTT10=
EXTT11=
EXTT12=
EXTT13=
PLAYORDER=
